<svg xmlns="http://www.w3.org/2000/svg" width="12" height="11.01" viewBox="0 0 12 11.01">
  <defs>
    <style>
      .cls-1 {
        fill: #fff;
      }
    </style>
  </defs>
  <path id="ic_favorite_border_24px" class="cls-1" d="M10.7,3A3.593,3.593,0,0,0,8,4.254,3.593,3.593,0,0,0,5.3,3,3.268,3.268,0,0,0,2,6.3c0,2.268,2.04,4.116,5.13,6.924L8,14.01l.87-.792C11.96,10.416,14,8.568,14,6.3A3.268,3.268,0,0,0,10.7,3ZM8.06,12.33,8,12.39l-.06-.06C5.084,9.744,3.2,8.034,3.2,6.3A2.051,2.051,0,0,1,5.3,4.2,2.346,2.346,0,0,1,7.442,5.616.552.552,0,0,0,8,6.094a.561.561,0,0,0,.564-.478A2.331,2.331,0,0,1,10.7,4.2a2.051,2.051,0,0,1,2.1,2.1C12.8,8.034,10.916,9.744,8.06,12.33Z" transform="translate(-2 -3)"/>
</svg>
