<svg xmlns="http://www.w3.org/2000/svg" width="24" height="22.02" viewBox="0 0 24 22.02">
  <defs>
    <style>
      .cls-1 {
        fill: #4d446f;
      }
    </style>
  </defs>
  <path id="ic_favorite_border_24px" class="cls-1" d="M19.4,3A7.186,7.186,0,0,0,14,5.508,7.186,7.186,0,0,0,8.6,3,6.536,6.536,0,0,0,2,9.6c0,4.536,4.08,8.232,10.26,13.848L14,25.02l1.74-1.584C21.92,17.832,26,14.136,26,9.6A6.536,6.536,0,0,0,19.4,3ZM14.12,21.66l-.12.12-.12-.12C8.168,16.488,4.4,13.068,4.4,9.6A4.1,4.1,0,0,1,8.6,5.4a4.691,4.691,0,0,1,4.284,2.832A1.1,1.1,0,0,0,14,9.188a1.122,1.122,0,0,0,1.128-.956A4.662,4.662,0,0,1,19.4,5.4a4.1,4.1,0,0,1,4.2,4.2C23.6,13.068,19.832,16.488,14.12,21.66Z" transform="translate(-2 -3)"/>
</svg>
