<svg id="refresh-page-arrow" xmlns="http://www.w3.org/2000/svg" width="40" height="39.686" viewBox="0 0 40 39.686">
  <defs>
    <style>
      .cls-1 {
        fill: #4d446f;
      }
    </style>
  </defs>
  <g id="그룹_43" data-name="그룹 43" transform="translate(0 0)">
    <path id="패스_74" data-name="패스 74" class="cls-1" d="M20.227,37.337A16.1,16.1,0,0,1,4.91,25.975a1.886,1.886,0,0,0-3.609,1.1A19.775,19.775,0,1,0,20.227,1.557,19.976,19.976,0,0,0,4.534,9.278L3.749,3.063a1.882,1.882,0,0,0-3.735.471L1.489,15.021a1.887,1.887,0,0,0,1.852,1.632h.22l11.362-1.287a1.879,1.879,0,0,0-.408-3.735l-7.627.847A16.008,16.008,0,1,1,20.227,37.337Z" transform="translate(0 -1.417)"/>
  </g>
</svg>
