<svg id="sharing-files" xmlns="http://www.w3.org/2000/svg" width="36" height="40.885" viewBox="0 0 36 40.885">
  <defs>
    <style>
      .cls-1 {
        fill: #4d446f;
      }
    </style>
  </defs>
  <g id="그룹_30" data-name="그룹 30" transform="translate(0 0)">
    <path id="패스_49" data-name="패스 49" class="cls-1" d="M59.664,12.061c.115,0,.23.023.346.023h0A6.041,6.041,0,1,0,54,5.678a6.218,6.218,0,0,0,.3,2.281L39.964,16.508a6.013,6.013,0,1,0-3.917,10.576,5.889,5.889,0,0,0,3.733-1.313l13.986,7.6a5.9,5.9,0,0,0,.507,4.24,6.018,6.018,0,0,0,5.346,3.272h0a5.813,5.813,0,0,0,2.765-.714,6.058,6.058,0,0,0,2.581-8.134,6,6,0,0,0-5.346-3.249,5.789,5.789,0,0,0-2.765.691,6.083,6.083,0,0,0-1.8,1.429l-13.525-7.35a6.069,6.069,0,0,0,.553-2.511,5.99,5.99,0,0,0-.461-2.327l14.17-8.41A5.777,5.777,0,0,0,59.664,12.061Z" transform="translate(-30.033 -0.001)"/>
  </g>
</svg>
